<svg xmlns="http://www.w3.org/2000/svg" width="293" height="72" viewBox="0 0 293 72" fill="none"><path d="M16.4517 26.4238C13.9738 26.4238 11.7894 26.2282 9.96354 25.837C8.10513 25.4457 6.67056 24.9893 5.65984 24.435C4.68173 23.8808 3.86663 23.1961 3.27977 22.4136C2.6929 21.6311 2.30165 20.9138 2.13863 20.2943C1.97562 19.6749 1.91041 18.9902 1.91041 18.2729V17.9469H10.0287C10.1918 20.3595 11.9524 21.5659 16.7125 21.5659H18.5057C20.0707 21.5659 20.7228 21.4681 21.7661 21.3377C22.7768 21.2072 23.5267 21.0442 23.9832 20.7834C24.4722 20.5226 24.7657 20.2943 24.9287 20.0335C25.0917 19.7727 25.1569 19.4792 25.1569 19.1206C25.1569 18.6315 25.0265 18.2403 24.7657 17.9469C24.5048 17.686 23.8527 17.4252 22.8746 17.197C21.8965 17.0014 20.4946 16.8709 18.6361 16.8383L16.1909 16.7731L14.3651 16.7405C6.27931 16.5449 2.23645 14.2952 2.23645 10.0568V9.76332C2.23645 9.04604 2.33426 8.36136 2.52988 7.74189C2.7255 7.12241 3.11675 6.50294 3.73622 5.85087C4.32309 5.23139 5.10558 4.70973 6.08369 4.28589C7.0618 3.86204 8.36596 3.50339 10.0287 3.24256C11.6589 2.94913 13.5826 2.81872 15.767 2.81872H18.0819C20.3315 2.81872 22.353 2.94913 24.081 3.24256C25.8416 3.536 27.2109 3.89464 28.2543 4.35109C29.2976 4.80755 30.1453 5.36181 30.7974 6.01388C31.4494 6.66596 31.9059 7.31804 32.1341 7.93751C32.3949 8.58958 32.5254 9.27426 32.5254 10.0241V10.3176H24.4396C24.3744 10.0894 24.3092 9.86113 24.244 9.69811C24.1788 9.53509 23.9832 9.30687 23.6897 9.01343C23.3963 8.72 23.0377 8.49177 22.5486 8.29615C22.0921 8.13313 21.3749 7.97011 20.462 7.80709C19.5491 7.67668 18.8318 7.61147 17.5928 7.61147H16.4517C14.5607 7.61147 13.3869 7.70928 12.3762 7.9049C11.3981 8.13313 10.7786 8.36136 10.583 8.58958C10.3548 8.81781 10.257 9.14385 10.257 9.5677C10.257 9.95894 10.3548 10.2524 10.6156 10.5132C10.8438 10.7414 11.3981 10.9697 12.2784 11.1979C13.1587 11.3935 14.3977 11.4913 15.9952 11.5239L17.8211 11.5565L20.1685 11.5891C24.8309 11.6543 28.1564 12.2412 30.2105 13.3171C32.2971 14.3931 33.3078 16.0558 33.3078 18.3707V18.7946C33.3078 19.6423 33.21 20.3922 33.0144 21.0442C32.8188 21.6963 32.3949 22.381 31.7755 23.0983C31.156 23.7829 30.3409 24.3698 29.2976 24.8263C28.2543 25.3153 26.8523 25.674 25.0591 25.9674C23.2659 26.2934 21.1466 26.4238 18.734 26.4238H16.4517ZM60.4749 3.04694H68.2346V14.0344C68.2346 14.9799 68.1042 15.958 67.876 16.9361C67.6478 17.8817 67.1913 18.9576 66.5066 20.0661C65.822 21.2072 64.9417 22.1854 63.8657 23.0331C62.7898 23.8808 61.3226 24.598 59.4642 25.1523C57.5732 25.7392 55.4214 26 53.0087 26H51.8023C49.9765 26 48.2811 25.8696 46.7814 25.5762C45.249 25.2827 43.9774 24.8915 42.9341 24.4024C41.8908 23.9134 40.9453 23.3265 40.1628 22.6418C39.3477 21.9571 38.7282 21.2398 38.2718 20.5552C37.7827 19.8379 37.4241 19.088 37.098 18.2729C36.8046 17.4578 36.609 16.7079 36.5112 16.0558C36.4134 15.3712 36.3807 14.7191 36.3807 14.0344V3.04694H44.1404V13.6106C44.1404 14.4257 44.2709 15.1755 44.4991 15.8602C44.7273 16.5775 45.1186 17.2622 45.6728 17.9469C46.2271 18.6315 47.0748 19.1532 48.2485 19.5445C49.3897 19.9357 50.759 20.1639 52.3566 20.1639C53.9216 20.1639 55.2583 19.9357 56.3995 19.5445C57.508 19.1532 58.3557 18.6315 58.91 17.9469C59.4968 17.2622 59.8881 16.5775 60.1163 15.8602C60.3445 15.1755 60.4749 14.4257 60.4749 13.6106V3.04694ZM93.7856 3.43819L105.914 25.9674H98.2523L96.133 21.8593H79.8637L77.7445 25.9674H70.1152L82.2112 3.43819H93.7856ZM82.5046 16.7731H93.5247L89.221 8.49177H86.7757L82.5046 16.7731ZM152.174 16.5123C152.957 17.36 153.348 18.4685 153.348 19.8379V26H146.273V21.9897C146.273 20.6204 145.914 19.6097 145.197 18.9902C144.48 18.3707 143.273 18.0447 141.545 18.0447H132.351V26H125.309V3.5686H143.469C149.99 3.5686 153.25 5.52483 153.25 9.40468V9.76332C153.25 12.1434 151.848 13.7736 149.077 14.6865C150.349 15.0451 151.392 15.632 152.174 16.5123ZM145.882 10.8718V10.8392C145.882 10.1872 145.654 9.66551 145.197 9.27426C144.741 8.88302 144.023 8.65479 143.045 8.65479H132.351V13.0889H143.045C144.023 13.0889 144.741 12.8607 145.197 12.4694C145.654 12.0782 145.882 11.5239 145.882 10.8718ZM156.83 3.14475H183.076V8.32875H164.525V11.7195H182.652V16.9361H164.525V20.6856H183.435V26H156.83V3.14475ZM186.887 3.20996H195.559L211.437 17.5556V3.20996H219.132V26.0326H211.437L194.549 10.9045V26.0326H186.887V3.20996ZM223.088 3.14475H239.586C241.901 3.14475 244.02 3.27517 245.878 3.5686C247.769 3.86204 249.334 4.25328 250.573 4.80755C251.845 5.36181 252.921 5.94868 253.801 6.63336C254.681 7.28543 255.366 8.03532 255.855 8.88302C256.312 9.73072 256.67 10.5458 256.866 11.3609C257.094 12.176 257.192 13.0237 257.192 13.9366V14.8821C257.192 15.958 257.061 16.9688 256.768 17.9143C256.507 18.8924 255.986 19.8705 255.203 20.8812C254.388 21.9245 253.377 22.8048 252.138 23.5221C250.867 24.2394 249.171 24.8263 247.019 25.2827C244.9 25.7718 242.422 26 239.618 26H223.088V3.14475ZM230.881 8.52438V20.49H238.999C245.683 20.49 249.008 18.5337 249.008 14.5887V14.4257C249.008 10.4806 245.683 8.52438 238.999 8.52438H230.881ZM280.016 3.43819L292.144 25.9674H284.482L282.363 21.8593H266.094L263.974 25.9674H256.345L268.441 3.43819H280.016ZM268.735 16.7731H279.755L275.451 8.49177H273.006L268.735 16.7731Z" fill="white"></path><rect x="18.4622" y="33.283" width="256.075" height="38.717" fill="url(#paint0_linear_1_8)"></rect><g filter="url(#filter0_f_1_8)"><path d="M33.3242 41.1786H59.5702V46.3626H41.0186V49.7534H59.1464V54.97H41.0186V58.7194H59.9288V64.0338H33.3242V41.1786Z" fill="black" fill-opacity="0.2"></path><path d="M63.3808 64.0664V41.2438H74.4334L83.0082 55.459L91.6482 41.2438H102.31V64.0664H94.6152V48.2536L84.834 64.0664H80.6608L70.847 48.2536V64.0664H63.3808Z" fill="black" fill-opacity="0.2"></path><path d="M139.431 64.4251C137.442 64.4251 135.649 64.2946 133.986 64.0012C132.323 63.7078 130.922 63.3491 129.813 62.8927C128.672 62.4036 127.694 61.8494 126.813 61.1973C125.933 60.5126 125.248 59.8605 124.759 59.1758C124.27 58.4912 123.879 57.7739 123.553 56.9914C123.227 56.2089 122.999 55.4916 122.901 54.8721C122.803 54.2201 122.771 53.6006 122.771 52.9811V52.0682C122.771 51.0901 122.868 50.1446 123.064 49.2643C123.26 48.384 123.716 47.4059 124.401 46.33C125.118 45.254 126.031 44.3085 127.172 43.526C128.313 42.7435 129.943 42.0915 132.063 41.5698C134.149 41.0155 136.627 40.7547 139.431 40.7547H140.8C143.572 40.7547 145.984 40.9829 148.104 41.4394C150.19 41.9285 151.821 42.4827 152.962 43.1348C154.103 43.8195 155.048 44.5694 155.766 45.4497C156.515 46.33 156.972 47.1125 157.2 47.7971C157.396 48.4818 157.494 49.1339 157.494 49.7534V50.112H149.212C149.147 49.8512 149.082 49.6555 148.984 49.4599C148.886 49.2643 148.625 48.9383 148.202 48.5144C147.778 48.0906 147.289 47.7319 146.702 47.4385C146.115 47.1451 145.235 46.8842 144.093 46.656C142.92 46.4278 141.616 46.2974 140.116 46.2974C138.323 46.2974 136.79 46.4604 135.551 46.819C134.28 47.1451 133.334 47.6015 132.682 48.1884C132.063 48.8078 131.606 49.4273 131.345 50.0794C131.052 50.7315 130.922 51.4488 130.922 52.2312V52.5899C130.922 53.3398 131.085 54.0571 131.378 54.7417C131.671 55.4264 132.16 56.0785 132.813 56.7306C133.465 57.3826 134.41 57.9043 135.682 58.2955C136.953 58.6868 138.453 58.8824 140.181 58.8824C145.3 58.8824 148.299 57.5457 149.212 54.9048C149.245 54.8722 149.245 54.8395 149.245 54.8069H157.526V55.133C157.526 55.8177 157.428 56.5349 157.2 57.2522C156.939 57.9695 156.45 58.752 155.733 59.6649C154.983 60.5452 154.038 61.3277 152.864 62.0124C151.723 62.6645 150.093 63.2513 148.006 63.7404C145.919 64.1968 143.507 64.4251 140.8 64.4251H139.431Z" fill="black" fill-opacity="0.2"></path><path d="M180.803 41.472L192.932 64.0012H185.27L183.151 59.8931H166.881L164.762 64.0012H157.133L169.229 41.472H180.803ZM169.522 54.8069H180.542L176.239 46.5256H173.793L169.522 54.8069Z" fill="black" fill-opacity="0.2"></path><path d="M207.521 64.4577C205.043 64.4577 202.859 64.262 201.033 63.8708C199.175 63.4795 197.74 63.0231 196.729 62.4688C195.751 61.9146 194.936 61.2299 194.349 60.4474C193.763 59.6649 193.371 58.9476 193.208 58.3282C193.045 57.7087 192.98 57.024 192.98 56.3067V55.9807H201.098C201.261 58.3934 203.022 59.5997 207.782 59.5997H209.575C211.14 59.5997 211.792 59.5019 212.836 59.3715C213.846 59.2411 214.596 59.078 215.053 58.8172C215.542 58.5564 215.835 58.3281 215.998 58.0673C216.161 57.8065 216.227 57.5131 216.227 57.1544C216.227 56.6654 216.096 56.2741 215.835 55.9807C215.574 55.7198 214.922 55.459 213.944 55.2308C212.966 55.0352 211.564 54.9048 209.706 54.8721L207.26 54.8069L205.435 54.7743C197.349 54.5787 193.306 52.3291 193.306 48.0906V47.7971C193.306 47.0798 193.404 46.3952 193.599 45.7757C193.795 45.1562 194.186 44.5368 194.806 43.8847C195.393 43.2652 196.175 42.7435 197.153 42.3197C198.131 41.8958 199.436 41.5372 201.098 41.2764C202.729 40.9829 204.652 40.8525 206.837 40.8525H209.151C211.401 40.8525 213.423 40.9829 215.151 41.2764C216.911 41.5698 218.281 41.9285 219.324 42.3849C220.367 42.8414 221.215 43.3956 221.867 44.0477C222.519 44.6998 222.975 45.3518 223.204 45.9713C223.465 46.6234 223.595 47.3081 223.595 48.058V48.3514H215.509C215.444 48.1232 215.379 47.8949 215.314 47.7319C215.248 47.5689 215.053 47.3407 214.759 47.0472C214.466 46.7538 214.107 46.5256 213.618 46.33C213.162 46.1669 212.444 46.0039 211.532 45.8409C210.619 45.7105 209.901 45.6453 208.662 45.6453H207.521C205.63 45.6453 204.457 45.7431 203.446 45.9387C202.468 46.1669 201.848 46.3952 201.653 46.6234C201.424 46.8516 201.327 47.1777 201.327 47.6015C201.327 47.9928 201.424 48.2862 201.685 48.547C201.913 48.7752 202.468 49.0035 203.348 49.2317C204.228 49.4273 205.467 49.5251 207.065 49.5577L208.891 49.5903L211.238 49.6229C215.9 49.6881 219.226 50.275 221.28 51.3509C223.367 52.4269 224.377 54.0897 224.377 56.4045V56.8284C224.377 57.6761 224.28 58.426 224.084 59.078C223.888 59.7301 223.465 60.4148 222.845 61.1321C222.226 61.8168 221.411 62.4036 220.367 62.8601C219.324 63.3491 217.922 63.7078 216.129 64.0012C214.335 64.3272 212.216 64.4577 209.804 64.4577H207.521Z" fill="black" fill-opacity="0.2"></path><path d="M248.494 41.472L260.623 64.0012H252.961L250.842 59.8931H234.573L232.453 64.0012H224.824L236.92 41.472H248.494ZM237.213 54.8069H248.233L243.93 46.5256H241.485L237.213 54.8069Z" fill="black" fill-opacity="0.2"></path></g><path d="M33.3242 41.1786H59.5702V46.3626H41.0186V49.7534H59.1464V54.97H41.0186V58.7194H59.9288V64.0338H33.3242V41.1786Z" fill="white"></path><path d="M63.3808 64.0664V41.2438H74.4334L83.0082 55.459L91.6482 41.2438H102.31V64.0664H94.6152V48.2536L84.834 64.0664H80.6608L70.847 48.2536V64.0664H63.3808Z" fill="white"></path><path d="M139.431 64.4251C137.442 64.4251 135.649 64.2946 133.986 64.0012C132.323 63.7078 130.922 63.3491 129.813 62.8927C128.672 62.4036 127.694 61.8494 126.813 61.1973C125.933 60.5126 125.248 59.8605 124.759 59.1758C124.27 58.4912 123.879 57.7739 123.553 56.9914C123.227 56.2089 122.999 55.4916 122.901 54.8721C122.803 54.2201 122.771 53.6006 122.771 52.9811V52.0682C122.771 51.0901 122.868 50.1446 123.064 49.2643C123.26 48.384 123.716 47.4059 124.401 46.33C125.118 45.254 126.031 44.3085 127.172 43.526C128.313 42.7435 129.943 42.0915 132.063 41.5698C134.149 41.0155 136.627 40.7547 139.431 40.7547H140.8C143.572 40.7547 145.984 40.9829 148.104 41.4394C150.19 41.9285 151.821 42.4827 152.962 43.1348C154.103 43.8195 155.048 44.5694 155.766 45.4497C156.515 46.33 156.972 47.1125 157.2 47.7971C157.396 48.4818 157.494 49.1339 157.494 49.7534V50.112H149.212C149.147 49.8512 149.082 49.6555 148.984 49.4599C148.886 49.2643 148.625 48.9383 148.202 48.5144C147.778 48.0906 147.289 47.7319 146.702 47.4385C146.115 47.1451 145.235 46.8842 144.093 46.656C142.92 46.4278 141.616 46.2974 140.116 46.2974C138.323 46.2974 136.79 46.4604 135.551 46.819C134.28 47.1451 133.334 47.6015 132.682 48.1884C132.063 48.8078 131.606 49.4273 131.345 50.0794C131.052 50.7315 130.922 51.4488 130.922 52.2312V52.5899C130.922 53.3398 131.085 54.0571 131.378 54.7417C131.671 55.4264 132.16 56.0785 132.813 56.7306C133.465 57.3826 134.41 57.9043 135.682 58.2955C136.953 58.6868 138.453 58.8824 140.181 58.8824C145.3 58.8824 148.299 57.5457 149.212 54.9048C149.245 54.8722 149.245 54.8395 149.245 54.8069H157.526V55.133C157.526 55.8177 157.428 56.5349 157.2 57.2522C156.939 57.9695 156.45 58.752 155.733 59.6649C154.983 60.5452 154.038 61.3277 152.864 62.0124C151.723 62.6645 150.093 63.2513 148.006 63.7404C145.919 64.1968 143.507 64.4251 140.8 64.4251H139.431Z" fill="white"></path><path d="M180.803 41.472L192.932 64.0012H185.27L183.151 59.8931H166.881L164.762 64.0012H157.133L169.229 41.472H180.803ZM169.522 54.8069H180.542L176.239 46.5256H173.793L169.522 54.8069Z" fill="white"></path><path d="M207.521 64.4577C205.043 64.4577 202.859 64.262 201.033 63.8708C199.175 63.4795 197.74 63.0231 196.729 62.4688C195.751 61.9146 194.936 61.2299 194.349 60.4474C193.763 59.6649 193.371 58.9476 193.208 58.3282C193.045 57.7087 192.98 57.024 192.98 56.3067V55.9807H201.098C201.261 58.3934 203.022 59.5997 207.782 59.5997H209.575C211.14 59.5997 211.792 59.5019 212.836 59.3715C213.846 59.2411 214.596 59.078 215.053 58.8172C215.542 58.5564 215.835 58.3281 215.998 58.0673C216.161 57.8065 216.227 57.5131 216.227 57.1544C216.227 56.6654 216.096 56.2741 215.835 55.9807C215.574 55.7198 214.922 55.459 213.944 55.2308C212.966 55.0352 211.564 54.9048 209.706 54.8721L207.26 54.8069L205.435 54.7743C197.349 54.5787 193.306 52.3291 193.306 48.0906V47.7971C193.306 47.0798 193.404 46.3952 193.599 45.7757C193.795 45.1562 194.186 44.5368 194.806 43.8847C195.393 43.2652 196.175 42.7435 197.153 42.3197C198.131 41.8958 199.436 41.5372 201.098 41.2764C202.729 40.9829 204.652 40.8525 206.837 40.8525H209.151C211.401 40.8525 213.423 40.9829 215.151 41.2764C216.911 41.5698 218.281 41.9285 219.324 42.3849C220.367 42.8414 221.215 43.3956 221.867 44.0477C222.519 44.6998 222.975 45.3518 223.204 45.9713C223.465 46.6234 223.595 47.3081 223.595 48.058V48.3514H215.509C215.444 48.1232 215.379 47.8949 215.314 47.7319C215.248 47.5689 215.053 47.3407 214.759 47.0472C214.466 46.7538 214.107 46.5256 213.618 46.33C213.162 46.1669 212.444 46.0039 211.532 45.8409C210.619 45.7105 209.901 45.6453 208.662 45.6453H207.521C205.63 45.6453 204.457 45.7431 203.446 45.9387C202.468 46.1669 201.848 46.3952 201.653 46.6234C201.424 46.8516 201.327 47.1777 201.327 47.6015C201.327 47.9928 201.424 48.2862 201.685 48.547C201.913 48.7752 202.468 49.0035 203.348 49.2317C204.228 49.4273 205.467 49.5251 207.065 49.5577L208.891 49.5903L211.238 49.6229C215.9 49.6881 219.226 50.275 221.28 51.3509C223.367 52.4269 224.377 54.0897 224.377 56.4045V56.8284C224.377 57.6761 224.28 58.426 224.084 59.078C223.888 59.7301 223.465 60.4148 222.845 61.1321C222.226 61.8168 221.411 62.4036 220.367 62.8601C219.324 63.3491 217.922 63.7078 216.129 64.0012C214.335 64.3272 212.216 64.4577 209.804 64.4577H207.521Z" fill="white"></path><path d="M248.494 41.472L260.623 64.0012H252.961L250.842 59.8931H234.573L232.453 64.0012H224.824L236.92 41.472H248.494ZM237.213 54.8069H248.233L243.93 46.5256H241.485L237.213 54.8069Z" fill="white"></path><defs><filter id="filter0_f_1_8" x="27.5242" y="34.9547" width="238.899" height="35.3029" filterUnits="userSpaceOnUse" color-interpolation-filters="sRGB"><feGaussianBlur stdDeviation="2.9"></feGaussianBlur></filter><linearGradient id="paint0_linear_1_8" x1="18.4623" y1="72" x2="274.538" y2="33.2831" gradientUnits="userSpaceOnUse"><stop stop-color="#CA7F0F"></stop><stop offset="0.625" stop-color="#F4BA23"></stop><stop offset="1" stop-color="#F2A50F"></stop></linearGradient></defs></svg>